<?xml version="1.0" encoding="utf-8"?>
<!-- Generator: Adobe Illustrator 21.0.0, SVG Export Plug-In . SVG Version: 6.00 Build 0)  -->
<svg version="1.1" id="Layer_1" xmlns="http://www.w3.org/2000/svg" xmlns:xlink="http://www.w3.org/1999/xlink" x="0px" y="0px"
	 viewBox="0 0 183.3 35" style="enable-background:new 0 0 183.3 35;" xml:space="preserve">
<style type="text/css">
	.st0{fill:#43D6A0;}
	.st1{fill:#FFFFFF;}
	.st2{opacity:0.7;}
</style>
<title>newline-logo_1</title>
<g id="Layer_2">
	<g id="Layer_1-2">
		<polygon class="st0" points="10.6,22.9 2.3,30.8 0,28.4 5.8,22.9 0,17.5 2.3,15.1 		"/>
		<rect x="7.8" y="31.5" class="st0" width="12.1" height="3.5"/>
		<path class="st1" d="M28.9,34.6v-11c0.2-2.4-1.5-4.5-3.9-4.7c-0.2,0-0.3,0-0.5,0c-2.6,0-4.8,2.2-4.8,4.8c0,0.1,0,0.2,0,0.3V28
			h-4.3v-6.8c0-2.2-0.1-2.9-2-2.7v-2.8c2.7-0.5,5.9-0.7,5.9,2.9c1-2.4,3.9-3.3,6.4-3.3c5.1,0,7.4,3.5,7.4,8.1v11L28.9,34.6z"/>
		<path class="st1" d="M53.7,26H39.8c0,3.4,2.7,5.5,6.1,5.5c2.3,0.2,4.7-0.2,6.8-1.2l0.5,3.2c-2.2,1-4.7,1.5-7.1,1.5
			c-6.2,0.1-10.8-3.9-10.6-10.2s4.6-9.4,9.8-9.4C52,15.4,54.9,19.7,53.7,26z M39.9,23h10.4c0.1-2.9-2.2-4.3-4.9-4.3S40.5,20,39.9,23
			z"/>
		<path class="st1" d="M61.7,34.8l-7.4-18.5v-0.5h4.6l2.4,6.5l1.8,5.1h0.1l4.5-11.2h2.1l4.5,11.2h0.1l1.8-5.2
			c0.7-2.2,1.6-4.3,2.3-6.5H83v0.5l-7.5,18.5h-1.9l-5-11.3l-5,11.3H61.7z"/>
		<path class="st1" d="M90.6,6v21.8c0,3.1,0.8,4.1,4.1,3.6l0.2,3.3c-5.8,0.9-8.4-0.5-8.4-6.8V6H90.6z"/>
		<path class="st1" d="M100.1,7.5c1.3-0.1,2.5,1,2.5,2.3c0,0.1,0,0.1,0,0.2c0,1.4-1.1,2.6-2.6,2.6s-2.6-1.1-2.6-2.6
			c0-1.3,1-2.5,2.3-2.5C99.9,7.5,100,7.5,100.1,7.5z M102.2,34.6H98V16h4.2L102.2,34.6z"/>
		<path class="st1" d="M120.9,34.6v-11c0.2-2.4-1.5-4.5-3.9-4.7c-0.2,0-0.3,0-0.5,0c-2.6,0-4.8,2.2-4.8,4.8c0,0.1,0,0.2,0,0.3v10.6
			h-4.3V21.2c0-2.2-0.1-2.9-2-2.7v-2.8c2.7-0.5,5.9-0.7,5.9,2.9c1.1-2.4,3.9-3.3,6.4-3.3c5.1,0,7.4,3.5,7.4,8.1v11L120.9,34.6z"/>
		<path class="st1" d="M145.7,26h-13.9c0,3.4,2.7,5.5,6.1,5.5c2.3,0.2,4.7-0.2,6.8-1.2l0.6,3.2c-2.2,1-4.6,1.6-7.1,1.6
			c-6.2,0.1-10.8-3.9-10.6-10.2s4.6-9.4,9.8-9.4C144,15.4,147,19.7,145.7,26z M131.9,23h10.4c0.1-2.9-2.2-4.3-4.9-4.3
			S132.5,20,131.9,23z"/>
		<path class="st2" d="M146,14.4c0,0.9,0.7,1.6,1.6,1.6c0,0,0,0,0,0h34.1c0.9,0,1.6-0.7,1.6-1.6c0,0,0,0,0,0l0,0V1.6
			c0-0.9-0.7-1.6-1.6-1.6c0,0,0,0,0,0h-34.1c-0.9,0-1.6,0.7-1.6,1.6l0,0V14.4L146,14.4z"/>
		<path class="st1" d="M149.6,12V4h4.3c1.2-0.1,2.2,0.7,2.3,1.8c0,0.1,0,0.1,0,0.2c0,0.9-0.6,1.6-1.4,1.8c0.9,0.2,1.6,1,1.6,2
			c0,1.2-0.9,2.1-2.1,2.1H149.6z M154.4,6.3c0-0.5-0.4-0.9-0.9-0.9l0,0h-2.3v1.8h2.2c0.5,0.1,0.9-0.3,1-0.7
			C154.5,6.4,154.5,6.4,154.4,6.3L154.4,6.3z M154.6,9.6c0-0.5-0.5-0.9-1-0.9h-2.4v1.9h2.2c0.5,0.1,1-0.3,1.1-0.8
			C154.6,9.7,154.6,9.6,154.6,9.6L154.6,9.6z"/>
		<path class="st1" d="M158.3,12V4h5.8v1.5h-4v1.7h4v1.5h-4v1.8h4V12H158.3z"/>
		<path class="st1" d="M168,12V5.5h-2.4V4h6.5v1.5h-2.4V12H168z"/>
		<path class="st1" d="M178.7,12l-0.5-1.4h-3.5l-0.5,1.4h-2l3.2-8h2.2l3.1,8H178.7z M176.4,5.7l-1.3,3.4h2.6L176.4,5.7z"/>
	</g>
</g>
</svg>
